<?xml version="1.0" encoding="utf-8"?>
<!-- Generator: Adobe Illustrator 10.0, SVG Export Plug-In . SVG Version: 3.0.0 Build 76)  --><svg enable-background="new 0 0 340.961 377.751" height="377.751" overflow="visible" space="preserve" viewBox="0 0 340.961 377.751" width="340.961" xmlns="http://www.w3.org/2000/svg" xmlns:a="http://ns.adobe.com/AdobeSVGViewerExtensions/3.0/" xmlns:xlink="http://www.w3.org/1999/xlink">
  <metadata>
    <rdf:RDF xmlns:cc="http://web.resource.org/cc/" xmlns:dc="http://purl.org/dc/elements/1.1/" xmlns:rdf="http://www.w3.org/1999/02/22-rdf-syntax-ns#">
      <cc:Work rdf:about="">
        <dc:title>Beastie, FreeBSD daemon</dc:title>
        <dc:description>FreeBSD daemon</dc:description>
        <dc:subject>
          <rdf:Bag>
            <rdf:li>BSD</rdf:li>
            <rdf:li>computer</rdf:li>
            <rdf:li>daemon</rdf:li>
            <rdf:li>bsd</rdf:li>
          </rdf:Bag>
        </dc:subject>
        <dc:publisher>
          <cc:Agent rdf:about="http://www.openclipart.org/">
            <dc:title>Open Clip Art Library</dc:title>
          </cc:Agent>
        </dc:publisher>
        <dc:creator>
          <cc:Agent>
            <dc:title>Ryland Sanders</dc:title>
          </cc:Agent>
        </dc:creator>
        <dc:rights>
          <cc:Agent>
            <dc:title>Ryland Sanders</dc:title>
          </cc:Agent>
        </dc:rights>
        <dc:date>24 September 2006</dc:date>
        <dc:format>image/svg+xml</dc:format>
        <dc:type rdf:resource="http://purl.org/dc/dcmitype/StillImage"/>
        <cc:license rdf:resource="http://web.resource.org/cc/PublicDomain"/>
        <dc:language>en</dc:language>
      </cc:Work>
      <cc:License rdf:about="http://web.resource.org/cc/PublicDomain">
        <cc:permits rdf:resource="http://web.resource.org/cc/Reproduction"/>
        <cc:permits rdf:resource="http://web.resource.org/cc/Distribution"/>
        <cc:permits rdf:resource="http://web.resource.org/cc/DerivativeWorks"/>
      </cc:License>
    </rdf:RDF>
  </metadata>
  <g id="Layer_1">
    <g>
      <path d="M224.811,113.625c31.219-15.84,46.739-36.729,42.6-61.2c-1.21-7.159-11.62-27.06-30.45-39     c-8.101-3.149-7.101,2.101-5.55,4.801c4.189,7.319,7.5,23.1,6.449,31.949c-6.319,6.341-18.149,7.95-25.799,8.25     c-2.381-7.25-22.49-22.05-38.102-24.75c-15.51-2.689-36.75-0.239-46.799,6.21c-3.3-3.75-6.32-7.39-5.95-11.77     c0.91-10.72,17.05-17.54,19.17-25.95c-1.49-7.729-21.49,6.41-29.36,12.46c-22,16.91-39.16,35.24-22.91,63.49     c-0.55,2.36-4.29,12.81-4.32,17.55c-0.03,3.91-1.67,7.55-3.84,11.061c-2.95,4.77-6.99,7.8-9.43,11.06     c-6.63,8.83-3.12,26.7,6.63,35.39c7.1,6.33,14.06,7.181,22.47,12c4.31,5,14.68,11.07,22.36,13.971     c0.85,1.199,1.71,2.41,2.56,3.609c0.53,12.88-9.81,20.021-15.61,14.102c-3.77-3.91-9.28-3.521-12.35-2.07     c-0.45-0.59-0.72-1.13-1.08-1.74c2.28-2.108,4.07-5.819,3.76-9.069c-0.45-4.601-3.01-9.99-7.65-11.551     c-9.16-2.38-16.8-0.449-20.25,4.65c-2.39-2.51-5.7-5.4-8.55-8.1c1-3.601,2.98-6.841,3-10.801c0.25-6.58-2.1-10.35-5.4-15.449     c-4.73-7.311-21.27-20.061-24.15-17.7c0.6,3.75,4.68,6.96,6.3,10.8c1.45,3.44,2.1,5.4,3,10.8c2.43,0.931,4.1-2.8,6.3-4.2     c2.56,3.95,5.44,8.051,5.8,12.96c0.22,3.021-1.69,6.171-2.2,7.591c-4-0.99-11.25-5.4-18-8.7c-1.75-1.311,2.12-3.88,3.45-5.101     c-6.6-2.199-13.89-4.09-20.83-6.14c2.14,4.33,8.08,17.69,10.03,19.79c0.9-2.55,1.21-4.41,3.3-4.35c3.5,3.5,8.65,8.8,12.3,12.449     c-1.07,5.44-19.97,7.23-27.15,3.75c0.09-2.59,3.75-4.199,4.35-7.35c-1.9,0.18-7.71,0.29-11.55,0c-3.82-0.29-6.3-1.5-11.36-1.74     c1.46,8.04,25.18,26.86,41.66,20.34c3.31-0.189,12.27-8.13,12.3-8.1c4,2.7,9.1,8.45,13.2,12c-8.36,8.16-9.26,23,6.9,27.6     c-0.6,7.21,8.55,9.602,17.1,7.2c-0.75,3.602,4.53,6.66,7.8,6.75c-1.8,6.9,2.91,9.61,6.15,13.5c-7.8,12.9-4.65,27,3.45,36.75     c3.04,3.66,5.78,7.03,8.68,10.54c-1.96-0.1-6.98-4.07-8.2-2.33c-0.6,1.312,5.65,11.92,2.19,16.07     c-6.07,7.28-18.88,7.12-28.32,7.97c-22.16,1.971-58.51,4.76-60.58,16.83c-0.68,3.96,1.49,7.351,3.59,9.601     c8.02,8.601,34.64,6.659,43.55,5.971c0.86,3.438,2.9,5.938,7.08,7.729c22.61,9,58.56,4.511,75.91,3.222     c7.14-0.53,21.39-3.102,31.55-6.602c8.109-2.81,21.899-7.35,23.1-11.398c0.75-4.5-2.069-8.171-3.75-12     c-3.75-8.552-8.549-19.65-8.549-26.25c3.41,5.47,24.188,18.229,40.049,21.3c11.771,2.27,33.381,6.43,67.051,14.34     c6.359,2.06,12.21,4.56,16.649,9.06c1.58,1.602,4.011,3.91,3.149,6c-4.659,4.642-16.949,7.802-26.398,8.4     c-2.25-6-4.5-16.2-10.36-13.69c-1.109,12.211-32.54,20.44-47.39,27.49c0.699,4.98,32.92,4.352,47.398,3     c9.9-0.58,27.9-0.148,46.051-2.85c-2.141-3.15-4.34-4.9-5.801-7.352c22.221-4.1,20.851-29.92-3.199-36.448     c-6.061-2.12-29.271-8.961-41.101-12.15c-24.45-6.6-47.55-10.04-63.899-26.25c-11.439-11.35-14.851-29.4-18.75-44.55     c12.899-15.45,2.311-39.102-1.5-50.25c-1.66-6.05-5.57-11.05-4.351-16.65c1.46-6.74,7.86-11.41,13.05-16.05     C214.01,156.675,230.209,144.525,224.811,113.625z"/>
      <path d="M125.64,39.465c-3.15-3.979-5.49-6.699-5.22-11.58     c1.3-11.46,21.03-20.449,18.58-26.39c-1.77-4.29-18.9,7.28-26.54,13.21c-21.54,16.73-39.66,35.03-23.63,62.37     C92.14,66.315,111.47,37.095,125.64,39.465z" fill="#CB1009" stroke="#000000" stroke-width="0.5"/>
      <path d="M138.83,265.065c-6.17,0.35-12.35-1.53-17.1-3.84     c3.89-0.25,6.28-1,7.54-1.79c-4.58,1.31-7.47,1.079-9.56,0.608c-7.02-1.09-13.46-10.25-13.57-14.31c0-1.33,2.4,1.25,10.13-1.03     c-3.04,0.76-7.25,0.601-10.34-1c-3.1-2.56-7.92-7.63-5.89-12.07c17.25-3.67,18.77-20.158,14.2-23.079     c2.03-5.689,16.29-5.921,23.72-2.409c9.38,4.438,15.47,12.938,23.3,13.83c6.51,0.75,10.621-1.98,10.93-2.36     c0.19-0.24,0.75-1.87-0.629-1.45c-2.081,0.641-3.17,3.17-11.09,2.351c-6.9-0.721-14.68-11.069-22.43-13.529     c-6.64-2.2-11.46-2.812-17.02-1.57c-2.99,0.66-6.27,2.23-7.92,4.641c1.27-2.671,0.61-8.101-1.52-8.119     c5.33,1.01,14.23-3.11,13.62-17.73c6.67,4.28,22.4,1.82,30.31-1.67c0.36-0.58-26.74,7.45-32.44-2.439     c-9.02-3.601-18.31-8.98-22.62-13.99c-2.93-3.04-12.87-4.42-20.12-9.95c-9.5-5.41-15.98-25.69-9.02-35.67     c2.33-3.33,6.64-6.33,9.59-11.1c2.17-3.5,3.75-6.94,4.02-9.98c0.88-9.81,4.58-21.15,11.89-32.97     c9.95-15.761,28.37-32.181,32.89-18.15c0.06-1.81-0.61-6.09-1.27-5.24c10.06-6.449,30.47-8.83,46.77-5.75     c14.34,2.721,33.61,17.21,36.181,24.13c7.648-0.3,21.34-2.279,27.648-8.63c0.871-9.21-2.039-24.75-5.659-30.83     c-1.949-3.279-4.229-8.869,4.649-4.42c14.58,9.261,27.07,29.25,28.28,36.4c4.14,24.47-11.391,44.9-42.61,60.74     c5.4,30.899-9.969,42.06-18.52,49.71c-5.189,4.649-11.182,9.62-13.57,15.979c-1.899,7.48,2.149,14.062,4.439,20.8     c2.279,6.722,14.17,31.472,1.271,46.921c-15.602,9.771-25.051,9.551-38.621,11.069C151.72,262.775,145.09,264.715,138.83,265.065     z M130.16,176.505c1.31-0.06,2.57-0.279,3.74-0.68c8.15-1.84,14.81-11.86,23.4-13.83c5.52-2.52,7.94,0.72,11.7-0.32     c0.83-0.229,2.17-0.399,2.25-1.26c0.091-0.79-1.05-1.32-1.8-1.57c-4.29-0.85-8.84-0.02-12.75,0.94     c-9.12,2.45-14.4,12.79-22.95,14.31c-16.95,3.03-34.24-13.17-43.66-26.909c-0.99-1.33-5.04-2.03-5.54-0.45     c-0.6,1.939,4.14,1.25,5.4,2.83c3.15,3.96,7.95,9.51,11.55,12.96C109.04,169.745,120.97,176.936,130.16,176.505z M120.05,145.806     c1.53,0.039,3.13-0.25,4.16-1.271c1.74-1.72,2.36-4.88,1.53-7.19c-0.35-0.989-1.93-2.42-2.49-1.97     c-0.58,0.601,0.86,2.23,1.07,3.33c0.35,1.851,0.12,3.19-1.23,4.5c-1.34,1.311-2.55,0.93-4.39,0.61c-1.97-0.33-3.5-2.63-5.42-2.96     c-4.65-1.5-11.1,2.6-15.94,0.41c-4.98-2.181-8.61-6.2-8.58-11.65c0.34-4.83,3.74-7.04,7.97-8.17c3.72-0.82,8.96-0.38,12.29,2.41     c0.78,1.37,1.96,0.49,0.9-1.05c-2.19-3.19-10.39-4.23-13.52-3.271c-5.31,1.47-9.46,5.7-9.69,10.44     c-0.27,5.72,5.23,11.3,10.45,13.659c4.79,1.681,10.25-1.92,15.74-1.06c2.12,0.53,3.53,2.771,5.65,3.09     C119.03,145.745,119.54,145.795,120.05,145.806z M164.36,134.175c-2.41-2.369-10.1-2.489-12.6-2.399     c5.1-6.15,9.61-15.8,11.1-22.8c3.5-16.551,1.11-41.601-13.05-47.7c-6.61-2.851-16.77,5.28-20.55,12.45     c-8.9,14.819-21.9,37.14-12.15,52.199c4.33,6.7,13.93,8.23,21.6,7.95C146.81,133.575,159.04,130.925,164.36,134.175z      M99.5,117.065c1.95-0.09,3.98-0.971,5.96-2.95c5.59-5.6,8.17-17.67,10.64-25.41c2.82-8.82,6.82-17.32,9.94-25.83     c0.83-2.27,3.03-7.38-0.43-7.38c-9.72,0-12.87,3.78-17.74,8.09c-5.32,4.7-9.54,11.311-13.48,18.021     c-4.14,7.05-8.2,16.12-6.82,23.569C88.56,110.505,93.67,117.335,99.5,117.065z M167.2,66.705     c8.229-13.479-16.04-27.96-25.27-14.899C147.22,44.115,170.99,51.785,167.2,66.705z" fill="#CB1009" stroke="#000000" stroke-width="0.5"/>
      <path d="M105.18,246.045c-6.66,13.352-2.98,25.642,4.08,35.2     c2.82,3.83,6.01,6.9,8.9,10.42c1.65-2.68,11.52-1.27,13.67,5.74c0.17,0.56,0.76-3.811,2.81-2.811     c2.65,1.279,3.97,2.551,5.29,4.631c1.93-2.15,7.96-7.012,12.57-6.04c3.32,0.26,6.73,1.38,9.59,3.89     c0.46-1.61,0.12-1.439,0.66-1.33c8.48,1.83,19.439,1.521,25.3-0.91c4.8-1.979,6.569,4.15,6.37,4.062     c3.221,6.028,24.09,19.06,39.979,22.5c11.721,2.528,33.091,6.25,66.761,14.159c6.359,2.069,13.229,4.681,17.92,9.551     c1.82,1.89,4.479,4.68,3.439,7.09c-4.659,4.649-18.249,8.09-27.7,8.689c-2.25-6-3.969-15.351-9.329-13.949     c-0.819,12.31-33.38,21.39-46.37,27.05c1.931,4.069,30.699,3,45.4,1.93c9.899-0.58,27.039,0.12,45.188-2.58     c-2.26-2.569-4.77-4.85-6.229-7.3c22.91-3.22,22.631-28.12-2.569-35.521c-6.061-2.119-29.171-8.609-41-11.811     c-24.45-6.6-47.29-10.1-63.649-26.189c-11.551-11.359-15.34-29.489-19.24-44.641c-7.75,4.51-12.64,6.74-24.229,8.96     c5.03,4.642,16.062,11.63,18.569,15.511c6.101,9.42-1.949,12.54-9.77,7.829c-3.199-1.93-20.5-15.698-25.11-19.42     c-14.01,8.92-27.7,6.16-35.85,1.102c-0.2-0.352-0.91-0.5-1.51-0.75C111.87,260.115,105.54,251.205,105.18,246.045z" fill="#CB1009" stroke="#000000" stroke-width="0.5"/>
      <path d="M91.44,109.865c-4.61-3.89-2.53-18.03,4.02-27.41     c3.99-5.72,5.95-10.55,11.12-15.53c4.06-3.909,8.18-9.83,18.02-10.54c3.2,0-0.19,6.29-0.96,8.431     c-2.89,8.069-6.21,15.22-8.82,23.58c-1.35,4.33,0.04,0.5-1.53,5.56c-0.47-4.51-3.79-7.54-7.69-8.02h-0.29l-0.29,0.62     c-1.5,3.29-3.65,8.399-3.78,9.27c-0.35-1.61-0.15-5.3,0.55-8.18l0.43-1.431l-0.65,0.141C96.16,88.146,91.01,95.125,91.44,109.865     z" fill="#FFFFFF" stroke="#000000" stroke-width="0.5"/>
      <path d="M138.11,132.675c-1.24,0.011-2.55-0.05-3.93-0.199     c-3.65-0.381-2.41-0.11-5.56-1.341c14.93-14.26,13.07-32.439,4.77-37.819l-2.15-1.01l-0.43,0.489     c-1.55,2.061-3.51,6.45-4.07,9.69c-0.74-2.99-0.02-7.94,1.25-10.51l0.13-0.21l-1.27,0.06c-2.43,0.3-5.08,1.45-7.81,3.66     c3.17-6.26,7.28-15.141,11.5-20.891c3.64-6.34,11.46-13.8,17.83-11.89c14.27,4.28,15.82,29.79,12.65,46.01     C159.78,115.025,156.7,132.465,138.11,132.675z" fill="#FFFFFF" stroke="#000000" stroke-width="0.5"/>
      <path d="M71.09,177.955c-2.84-2.68-6.36-5.84-9.19-8.52     c1.2-3.79,3.42-8.301,3.19-12.641c-0.28-5.01-2.22-10.1-5.24-14.109c-5.61-7.45-19.64-18.96-22.51-16.61     c0.77,3.38,4.5,5.75,5.89,9.44c1.38,3.329,1.91,5.21,3.08,10.579c2.39-0.439,3.23-3.689,5.69-4.55c2.54,3.94,5.9,9,6.26,13.891     c0.22,3-2,7.01-2.51,8.42c-3.97-0.98-12.29-6.05-19-9.33c-1.75-1.3,1.52-3.91,2.84-5.13c-6.56-2.181-11.44-3.37-18.34-5.4     c2.13,4.3,6.84,15.49,8.78,17.58c0.89-2.53,1.33-3.93,3.41-3.87c3.49,3.48,9.46,9.351,13.09,12.98     c-1.7,6.83-20.83,8.189-28.68,4.21c0.09-2.57,3.19-4.21,4.21-6.94c-1.88,0.17-6.33,0.4-9.49,0.2c-3.8-0.25-6.26-1.5-11.3-1.73     c2.24,8.011,23.98,24.4,39.91,18.94c3.3-0.18,12.84-8.57,12.87-8.54c3.98,2.69,9.55,8.39,13.93,12.37     c1.71-1.57,2.65-2.01,4.16-2.351C70.81,184.575,70.29,181.485,71.09,177.955z" fill="#9A9999" stroke="#000000" stroke-width="0.5"/>
      <path d="M72.37,178.165c-3.16,5.97,3.15,13.87,8.91,15.771     c7.39,2.438,14.16-0.512,16.59-5.771c2.12-4.609-1.05-12.17-5.7-14.109C85.66,171.335,75.17,172.115,72.37,178.165z" fill="#CB1009" stroke="#000000" stroke-width="0.5"/>
      <path d="M72.6,188.215c-5.25,0.37-11.07,9.959-10.13,16.2     c0.7,6.09,7.2,11.63,13.13,11.55c6.53,0.841,14.63-3.18,17.55-9.08c1.76-2.979,2.7-6.448,2.64-10.698     c-0.64-0.57-0.8-1.802-1.37-2.271C83.7,199.315,75,193.165,72.6,188.215z" fill="#CB1009" stroke="#000000" stroke-width="0.5"/>
      <path d="M75.52,217.306c-1.31,2.069,1.42,5.091,3.9,6.279     c3.71,1.79,8.39,1.05,12.38,0c5.47-1.438,10.5-4.66,14.77-8.37c2.17-1.88,4.79-3.979,5.25-6.8c2.34-4.26,0.03-8.18-3.1-10.43     c-3.24-2.32-5.82-4.74-11.82-2.05C96.9,209.385,87,217.085,75.52,217.306z" fill="#CB1009" stroke="#000000" stroke-width="0.5"/>
      <path d="M92.25,224.516c0.07,1.351-0.05,2.011,0.6,2.851     c4.37,5.67,13.36,2.13,17.62-1.95c3.45-3.3,5.85-9.08,4.65-13.43c-0.61-2.221-1.35-2.62-2.4-2.852     C111.37,213.865,100.74,221.945,92.25,224.516z" fill="#CB1009" stroke="#000000" stroke-width="0.5"/>
      <path d="M157.39,260.175l1.99-1.818c4.04-0.28,8.3-0.511,12.181-1.28     l17.369,13.59c5.92,5.75,5.66,14.57-7.029,8.83L157.39,260.175z" fill="#9A9999" stroke="#000000" stroke-width="0.5"/>
      <path d="M136.48,344.785c-2.26-16-14.43-21.33-29.28-23.12     c6.18-1.53,13.86-0.74,20.49-2.52c4.55-1.222,9.85-1.94,12.41-5.7c2.35-3.47,1.81-8.42,0.66-12.57     c6.19-7.84,12.61-9.779,21.49-2.479c2.41,5.46,5.99,15.17,1.41,19.68c-5.03,4.95-13.21,3.61-20.34,5.51l0.09,0.48     c7.27-1.83,15.06-0.102,20.76-5.051c5.44-4.721,1.79-14.739-1.09-22.101c3.81,0.681,15.5,2.55,26.169-1.04     c2.11-0.71,3.99,2.65,4.261,5.25c1.649,10.352,4.051,19.34,8.891,28.5C180.63,340.545,158.65,345.315,136.48,344.785z      M184.08,322.985c3.88,0,7.021-3.74,7.021-8.36s-3.142-8.359-7.021-8.359c-3.87,0-7.01,3.739-7.01,8.359     S180.209,322.985,184.08,322.985z" fill="#980F08" stroke="#000000" stroke-width="0.5"/>
      <path d="M184.08,306.925c3.57,0,6.46,3.45,6.46,7.7s-2.89,7.69-6.46,7.69c-3.561,0-6.449-3.44-6.449-7.69     S180.52,306.925,184.08,306.925z" fill="#FFFFFF"/>
      <path d="M163.95,308.665c0.43,0.97,0.28,1.95,0.07,2.92c-4.3-2.77-14.6-4.72-21.3-3.37     c-0.36-0.869-0.54-1.89-0.3-3.148C150.02,304.727,157.73,305.846,163.95,308.665z" fill="#FFFFFF"/>
      <path d="M163.27,314.585c0.26,1.392-0.82,2.7-2.1,3.45c-5.5-2.22-10.56-3.16-19.05-3     c-0.22-1.149-0.1-2.3,0.68-3.45C149.72,311.495,156.54,312.516,163.27,314.585z" fill="#FFFFFF"/>
      <path d="M137.25,317.437c6.64,0.438,12.18,1.35,17.4,2.398c-0.66,0.771-2.35,1.352-5.18,1.73     c-4.89-1.07-10.5-1.78-16.57-2.25C133.47,318.575,135.08,317.977,137.25,317.437z" fill="#FFFFFF"/>
      <path d="M126.67,320.437c6.45,0.43,11.33,1.18,14.03,2.398c-0.43,0.92-2.32,1.65-5.7,2.181     c-4.07-1.899-10.19-2.671-16.58-3.301C121.25,321.285,124.05,320.865,126.67,320.437z" fill="#FFFFFF"/>
      <path d="M139.72,301.085c-4.7-6.85-6.85-6.85-7.42-0.898     c-0.53-2.171-2.14-4.16-3.68-5.25c-5.3-3.771-8.94-4.352-10.35-2.021c-2.58-0.22-8.85-4.399-7.95-1.729     c2.1,6.229,3.58,9.64,2.25,13.35c-3.6,10.05-26.62,9.08-42.82,11.25c7.55,1.87,10.75,5.16,13.65,9.38     c7.01-2.26,14.7-3.38,22.26-3.739c0.26-0.341,0.61-0.671,1.74-0.989c9.94-1.062,22.62-1.472,29.17-5.102     C140.71,313.045,141.67,307.495,139.72,301.085z" fill="#980F08" stroke="#000000" stroke-width="0.5"/>
      <path d="M114.82,301.315c7.08,0.278,13.92,1.21,20.4,3.068c0.76,2.03,0.62,3.71-0.6,4.95     c-6.2-1.87-12.91-3.029-20.1-3.52C115.01,304.016,115.12,302.516,114.82,301.315z" fill="#FFFFFF"/>
      <path d="M131.32,312.785c-4.88-1.87-10.87-3.24-17.92-4.12c-0.59,1.16-1.87,1.91-3.45,2.47     c6.26,1.142,12.17,2.48,17.02,4.432C129.24,314.945,130.63,313.995,131.32,312.785z" fill="#FFFFFF"/>
      <path d="M119.77,317.585c-1.34,0.53-3.85,0.7-6,0.83c-4.99-1.34-9.29-2.819-13.27-4.35     c2.28-0.432,4.36-0.852,5.62-1.28C110.41,314.477,114.88,316.096,119.77,317.585z" fill="#FFFFFF"/>
      <path d="M105.9,319.016c-3.73-1.529-7.82-2.931-12.75-4.051l-6.6,0.972c5.11,1.238,9.83,2.64,13.95,4.278     C103.34,320.125,105.03,319.695,105.9,319.016z" fill="#FFFFFF"/>
      <path d="M81.86,325.425c-3.18,1.562-6.15,4.2-8.07,6.171     c-9.34,3.71-42.13,2.21-42.05-1.04c0.01-0.471-0.06,0.529-0.09,0.609c-1.07,2.47,25.79,4.521,40.29,2.19     c-2.73,3.09-3.68,8.04-2.82,11.938c-15.59,1.24-30.78,1.511-40.36-3.97c-4.25-3.36-7.09-8-4.5-12.15     c4.02-8.698,28.47-10.688,43.2-12.75C74.56,318.375,79.11,321.485,81.86,325.425z" fill="#FFFFFF" stroke="#000000" stroke-width="0.5"/>
      <path d="M106.16,322.727c-8.24,0.68-16.97,1.22-22.65,3.898     c-8.8,4.13-14.98,9.82-12.75,18.9c1.65,6.75,9.69,9.38,18.6,10.35c49.91,5.4,89.021-1.35,114.9-15.898l0.6-2.852     c-0.34-2.05-0.779-4.1-1.949-6.148c-21.04,10.52-43.69,15.05-67.35,14.85c-14.85,4.42-51.51,1.061-60.76-5.17     c12.61,4.21,46.75,9.08,60.36,3.16C133.66,330.565,120.67,323.937,106.16,322.727z" fill="#FFFFFF" stroke="#000000" stroke-width="0.5"/>
    </g>
  </g>
</svg>
