<?xml version="1.0" encoding="UTF-8" standalone="no"?>
<!-- Created with Inkscape (http://www.inkscape.org/) -->

<svg
   width="75.320129mm"
   height="92.604164mm"
   viewBox="0 0 75.320129 92.604164"
   version="1.1"
   id="svg8"
   inkscape:version="1.1.2 (b8e25be833, 2022-02-05)"
   sodipodi:docname="DB file icon.svg"
   xmlns:inkscape="http://www.inkscape.org/namespaces/inkscape"
   xmlns:sodipodi="http://sodipodi.sourceforge.net/DTD/sodipodi-0.dtd"
   xmlns="http://www.w3.org/2000/svg"
   xmlns:svg="http://www.w3.org/2000/svg"
   xmlns:rdf="http://www.w3.org/1999/02/22-rdf-syntax-ns#"
   xmlns:cc="http://creativecommons.org/ns#"
   xmlns:dc="http://purl.org/dc/elements/1.1/">
  <title
     id="title2682">PDF file icon</title>
  <defs
     id="defs2">
    <clipPath
       clipPathUnits="userSpaceOnUse"
       id="clipPath839">
      <rect
         style="opacity:1;fill:#000000;fill-opacity:1;fill-rule:nonzero;stroke:none;stroke-width:1;stroke-linecap:butt;stroke-linejoin:round;stroke-miterlimit:4;stroke-dasharray:none;stroke-dashoffset:0;stroke-opacity:1;paint-order:fill markers stroke"
         id="rect841"
         width="68.688263"
         height="67.886459"
         x="-74.033661"
         y="141.44913" />
    </clipPath>
  </defs>
  <sodipodi:namedview
     id="base"
     pagecolor="#ffffff"
     bordercolor="#666666"
     borderopacity="1.0"
     inkscape:pageopacity="0.0"
     inkscape:pageshadow="2"
     inkscape:zoom="1.4"
     inkscape:cx="-71.785715"
     inkscape:cy="100.71429"
     inkscape:document-units="mm"
     inkscape:current-layer="g899"
     showgrid="false"
     inkscape:object-nodes="false"
     inkscape:window-width="1920"
     inkscape:window-height="1017"
     inkscape:window-x="-8"
     inkscape:window-y="-8"
     inkscape:window-maximized="1"
     inkscape:snap-page="false"
     inkscape:snap-others="false"
     fit-margin-top="0"
     fit-margin-left="0"
     fit-margin-right="0"
     fit-margin-bottom="0"
     inkscape:pagecheckerboard="0" />
  <metadata
     id="metadata5">
    <rdf:RDF>
      <cc:Work
         rdf:about="">
        <dc:format>image/svg+xml</dc:format>
        <dc:type
           rdf:resource="http://purl.org/dc/dcmitype/StillImage" />
        <dc:title>PDF file icon</dc:title>
        <dc:date>08/10/2018</dc:date>
        <dc:creator>
          <cc:Agent>
            <dc:title>Adobe Systems</dc:title>
          </cc:Agent>
        </dc:creator>
        <dc:publisher>
          <cc:Agent>
            <dc:title>CMetalCore</dc:title>
          </cc:Agent>
        </dc:publisher>
        <dc:description>Fuente del texto &quot;PDF&quot;:
Franklin Gothic Medium Cond</dc:description>
        <cc:license
           rdf:resource="http://creativecommons.org/licenses/by-sa/4.0/" />
      </cc:Work>
      <cc:License
         rdf:about="http://creativecommons.org/licenses/by-sa/4.0/">
        <cc:permits
           rdf:resource="http://creativecommons.org/ns#Reproduction" />
        <cc:permits
           rdf:resource="http://creativecommons.org/ns#Distribution" />
        <cc:requires
           rdf:resource="http://creativecommons.org/ns#Notice" />
        <cc:requires
           rdf:resource="http://creativecommons.org/ns#Attribution" />
        <cc:permits
           rdf:resource="http://creativecommons.org/ns#DerivativeWorks" />
        <cc:requires
           rdf:resource="http://creativecommons.org/ns#ShareAlike" />
      </cc:License>
    </rdf:RDF>
  </metadata>
  <g
     inkscape:label="Capa 1"
     inkscape:groupmode="layer"
     id="layer1"
     transform="translate(36.076172,-93.731774)">
    <g
       id="g899"
       transform="matrix(1.4843054,0,0,1.4843054,17.471885,-90.243502)">
      <g
         id="g6478">
        <g
           id="g876" />
        <path
           inkscape:connector-curvature="0"
           style="color:#000000;font-style:normal;font-variant:normal;font-weight:normal;font-stretch:normal;font-size:medium;line-height:normal;font-family:sans-serif;font-variant-ligatures:normal;font-variant-position:normal;font-variant-caps:normal;font-variant-numeric:normal;font-variant-alternates:normal;font-feature-settings:normal;text-indent:0;text-align:start;text-decoration:none;text-decoration-line:none;text-decoration-style:solid;text-decoration-color:#000000;letter-spacing:normal;word-spacing:normal;text-transform:none;writing-mode:lr-tb;direction:ltr;text-orientation:mixed;dominant-baseline:auto;baseline-shift:baseline;text-anchor:start;white-space:normal;shape-padding:0;clip-rule:nonzero;display:inline;overflow:visible;visibility:visible;isolation:auto;mix-blend-mode:normal;color-interpolation:sRGB;color-interpolation-filters:linearRGB;solid-color:#000000;solid-opacity:1;vector-effect:none;fill:#a0cec7;fill-opacity:1;fill-rule:nonzero;stroke:none;stroke-width:2.11667;stroke-linecap:round;stroke-linejoin:round;stroke-miterlimit:4;stroke-dasharray:none;stroke-dashoffset:0;stroke-opacity:1;paint-order:markers fill stroke;color-rendering:auto;image-rendering:auto;shape-rendering:auto;text-rendering:auto;enable-background:accumulate"
           d="m -29.632812,123.94727 c -3.551967,0 -6.44336,2.89347 -6.44336,6.44531 v 49.49804 c 0,3.55185 2.891393,6.44532 6.44336,6.44532 H 8.2167969 c 3.5519661,0 6.4433591,-2.89335 6.4433591,-6.44532 v -40.70117 c 0,0 0.101353,-1.19181 -0.416015,-2.35156 -0.484969,-1.08711 -1.275391,-1.84375 -1.275391,-1.84375 a 1.0584391,1.0584391 0 0 0 -0.0059,-0.008 L 3.5722246,125.7752 a 1.0584391,1.0584391 0 0 0 -0.015625,-0.0156 c 0,0 -0.8017392,-0.76344 -1.9902344,-1.27344 -1.39939552,-0.6005 -2.8417968,-0.53711 -2.8417968,-0.53711 l 0.021484,-0.002 z"
           id="path890" />
        <path
           inkscape:connector-curvature="0"
           style="color:#000000;font-style:normal;font-variant:normal;font-weight:normal;font-stretch:normal;font-size:medium;line-height:normal;font-family:sans-serif;font-variant-ligatures:normal;font-variant-position:normal;font-variant-caps:normal;font-variant-numeric:normal;font-variant-alternates:normal;font-feature-settings:normal;text-indent:0;text-align:start;text-decoration:none;text-decoration-line:none;text-decoration-style:solid;text-decoration-color:#000000;letter-spacing:normal;word-spacing:normal;text-transform:none;writing-mode:lr-tb;direction:ltr;text-orientation:mixed;dominant-baseline:auto;baseline-shift:baseline;text-anchor:start;white-space:normal;shape-padding:0;clip-rule:nonzero;display:inline;overflow:visible;visibility:visible;isolation:auto;mix-blend-mode:normal;color-interpolation:sRGB;color-interpolation-filters:linearRGB;solid-color:#000000;solid-opacity:1;vector-effect:none;fill:#f5f5f5;fill-opacity:1;fill-rule:nonzero;stroke:none;stroke-width:2.11667;stroke-linecap:round;stroke-linejoin:round;stroke-miterlimit:4;stroke-dasharray:none;stroke-dashoffset:0;stroke-opacity:1;paint-order:markers fill stroke;color-rendering:auto;image-rendering:auto;shape-rendering:auto;text-rendering:auto;enable-background:accumulate"
           d="m -29.632812,126.06445 h 28.3789058 a 1.0584391,1.0584391 0 0 0 0.021484,0 c 0,0 1.13480448,0.011 1.96484378,0.36719 0.79889772,0.34282 1.36536982,0.86176 1.36914062,0.86524 1.25e-5,1e-5 0.00391,0.004 0.00391,0.004 l 9.3671868,9.18945 c 0,0 0.564354,0.59582 0.837891,1.20899 0.220779,0.49491 0.234375,1.40039 0.234375,1.40039 a 1.0584391,1.0584391 0 0 0 -0.002,0.0449 v 40.74609 c 0,2.41592 -1.910258,4.32813 -4.3261717,4.32813 H -29.632812 c -2.415914,0 -4.326172,-1.91209 -4.326172,-4.32813 v -49.49804 c 0,-2.41603 1.910258,-4.32813 4.326172,-4.32813 z"
           id="rect2684" />
        <g
           id="g858"
           transform="translate(-4.092683)">
          <text
             xml:space="preserve"
             style="font-style:normal;font-weight:normal;font-size:14.8856px;line-height:1.25;font-family:sans-serif;fill:#000000;fill-opacity:1;stroke:none;stroke-width:0.372139"
             x="-15.427232"
             y="177.38939"
             id="text9339"><tspan
               sodipodi:role="line"
               id="tspan9337"
               style="font-style:normal;font-variant:normal;font-weight:normal;font-stretch:normal;font-family:Carlito;-inkscape-font-specification:Carlito;stroke-width:0.372139"
               x="-15.427232"
               y="177.38939">DB</tspan></text>
        </g>
        <g
           id="g5250"
           transform="matrix(0.09231849,0,0,0.09231849,-103.82535,132.72499)"
           style="fill:#ff0000" />
        <g
           id="g5252"
           transform="matrix(0.09231849,0,0,0.09231849,-103.82535,132.72499)"
           style="fill:#ff0000" />
        <g
           id="g5254"
           transform="matrix(0.09231849,0,0,0.09231849,-103.82535,132.72499)"
           style="fill:#ff0000" />
        <g
           id="g5256"
           transform="matrix(0.09231849,0,0,0.09231849,-103.82535,132.72499)"
           style="fill:#ff0000" />
        <g
           id="g5258"
           transform="matrix(0.09231849,0,0,0.09231849,-103.82535,132.72499)"
           style="fill:#ff0000" />
        <g
           id="g5260"
           transform="matrix(0.09231849,0,0,0.09231849,-103.82535,132.72499)"
           style="fill:#ff0000" />
        <g
           id="g5262"
           transform="matrix(0.09231849,0,0,0.09231849,-103.82535,132.72499)"
           style="fill:#ff0000" />
        <g
           id="g5264"
           transform="matrix(0.09231849,0,0,0.09231849,-103.82535,132.72499)"
           style="fill:#ff0000" />
        <g
           id="g5266"
           transform="matrix(0.09231849,0,0,0.09231849,-103.82535,132.72499)"
           style="fill:#ff0000" />
        <g
           id="g5268"
           transform="matrix(0.09231849,0,0,0.09231849,-103.82535,132.72499)"
           style="fill:#ff0000" />
        <g
           id="g5270"
           transform="matrix(0.09231849,0,0,0.09231849,-103.82535,132.72499)"
           style="fill:#ff0000" />
        <g
           id="g5272"
           transform="matrix(0.09231849,0,0,0.09231849,-103.82535,132.72499)"
           style="fill:#ff0000" />
        <g
           id="g5274"
           transform="matrix(0.09231849,0,0,0.09231849,-103.82535,132.72499)"
           style="fill:#ff0000" />
        <g
           id="g5276"
           transform="matrix(0.09231849,0,0,0.09231849,-103.82535,132.72499)"
           style="fill:#ff0000" />
        <g
           id="g5278"
           transform="matrix(0.09231849,0,0,0.09231849,-103.82535,132.72499)"
           style="fill:#ff0000" />
        <g
           id="g838"
           transform="matrix(0.88500375,0,0,0.88500375,-21.770992,137.72553)">
          <path
             fill="#a0cec7"
             d="M 23,3.4 C 23,1.7 18.4,0.2 12.7,0.2 7,0.2 2.2,1.8 2.2,3.5 2.2,3.7 2.3,4 2.4,4.1 L 1.9,3.6 v 18 H 2.3 C 8.4,11.3 22.7,4.5 22.7,4.5 22.5,4.6 22.3,4.6 22.2,4.7 22.6,4.3 23,3.8 23,3.4 Z"
             id="path2" />
          <path
             fill="#222222"
             d="M 23.4,3.6 C 23.5,1.5 18.4,0 12.5,0 6.6,0 1.6,1.4 1.6,3.6 v 18 c 0,0 0,-2 0,0 0,2 5.2,3.4 10.9,3.4 5.7,0 10.9,-1.3 10.9,-3.4 z m -10.9,-3 c 6.1,0 10.2,1.5 10.2,2.9 C 22.7,5 18.6,6.4 12.5,6.4 6.4,6.4 2.3,5 2.3,3.6 c 0,-1.4 4.1,-3 10.2,-3 z m 10.2,21 C 22.4,23 18.3,24.3 12.5,24.3 6.7,24.3 2.6,22.9 2.3,21.6 v -5.4 c 1.2,1.5 5.2,2.5 10.2,2.5 4.9,0 9,-1 10.2,-2.4 z m 0,-6.1 c -0.4,1.4 -4.4,2.7 -10.2,2.7 -5.8,0 -9.9,-1.4 -10.2,-2.7 v 0.1 -5 c 1.2,1.5 5.2,2.4 10.2,2.4 4.9,0 9,-1 10.2,-2.4 z m 0,-5.7 C 22.3,11.2 18.3,12.5 12.5,12.5 6.7,12.5 2.6,11.1 2.3,9.8 V 10 4.6 c 1.2,1.3 5.3,2.5 10.2,2.5 4.9,0 9,-1 10.2,-2.4 z"
             id="path4" />
          <circle
             fill="none"
             stroke="#222222"
             stroke-width="0.497"
             stroke-miterlimit="10"
             cx="20.1"
             cy="8.6999998"
             id="ellipse6"
             r="0.89999998" />
          <circle
             fill="none"
             stroke="#222222"
             stroke-width="0.497"
             stroke-miterlimit="10"
             cx="20.1"
             cy="14.7"
             id="ellipse8"
             r="0.89999998" />
          <circle
             fill="none"
             stroke="#222222"
             stroke-width="0.497"
             stroke-miterlimit="10"
             cx="20.1"
             cy="20.700001"
             id="ellipse10"
             r="0.89999998" />
        </g>
      </g>
    </g>
  </g>
</svg>
