<?xml version="1.0" encoding="UTF-8" standalone="no"?>
<!-- Created with Inkscape (http://www.inkscape.org/) -->

<svg
   width="75.320129mm"
   height="92.604164mm"
   viewBox="0 0 75.320129 92.604164"
   version="1.1"
   id="svg8"
   inkscape:version="1.1.2 (b8e25be833, 2022-02-05)"
   sodipodi:docname="IMG file icon.svg"
   xmlns:inkscape="http://www.inkscape.org/namespaces/inkscape"
   xmlns:sodipodi="http://sodipodi.sourceforge.net/DTD/sodipodi-0.dtd"
   xmlns="http://www.w3.org/2000/svg"
   xmlns:svg="http://www.w3.org/2000/svg"
   xmlns:rdf="http://www.w3.org/1999/02/22-rdf-syntax-ns#"
   xmlns:cc="http://creativecommons.org/ns#"
   xmlns:dc="http://purl.org/dc/elements/1.1/">
  <title
     id="title2682">PDF file icon</title>
  <defs
     id="defs2">
    <clipPath
       clipPathUnits="userSpaceOnUse"
       id="clipPath839">
      <rect
         style="opacity:1;fill:#000000;fill-opacity:1;fill-rule:nonzero;stroke:none;stroke-width:1;stroke-linecap:butt;stroke-linejoin:round;stroke-miterlimit:4;stroke-dasharray:none;stroke-dashoffset:0;stroke-opacity:1;paint-order:fill markers stroke"
         id="rect841"
         width="68.688263"
         height="67.886459"
         x="-74.033661"
         y="141.44913" />
    </clipPath>
  </defs>
  <sodipodi:namedview
     id="base"
     pagecolor="#ffffff"
     bordercolor="#666666"
     borderopacity="1.0"
     inkscape:pageopacity="0.0"
     inkscape:pageshadow="2"
     inkscape:zoom="0.98994949"
     inkscape:cx="122.73353"
     inkscape:cy="166.67517"
     inkscape:document-units="mm"
     inkscape:current-layer="g899"
     showgrid="false"
     inkscape:object-nodes="false"
     inkscape:window-width="1920"
     inkscape:window-height="1017"
     inkscape:window-x="-8"
     inkscape:window-y="-8"
     inkscape:window-maximized="1"
     inkscape:snap-page="false"
     inkscape:snap-others="false"
     fit-margin-top="0"
     fit-margin-left="0"
     fit-margin-right="0"
     fit-margin-bottom="0"
     inkscape:pagecheckerboard="0" />
  <metadata
     id="metadata5">
    <rdf:RDF>
      <cc:Work
         rdf:about="">
        <dc:format>image/svg+xml</dc:format>
        <dc:type
           rdf:resource="http://purl.org/dc/dcmitype/StillImage" />
        <dc:title>PDF file icon</dc:title>
        <dc:date>08/10/2018</dc:date>
        <dc:creator>
          <cc:Agent>
            <dc:title>Adobe Systems</dc:title>
          </cc:Agent>
        </dc:creator>
        <dc:publisher>
          <cc:Agent>
            <dc:title>CMetalCore</dc:title>
          </cc:Agent>
        </dc:publisher>
        <dc:description>Fuente del texto &quot;PDF&quot;:
Franklin Gothic Medium Cond</dc:description>
        <cc:license
           rdf:resource="http://creativecommons.org/licenses/by-sa/4.0/" />
      </cc:Work>
      <cc:License
         rdf:about="http://creativecommons.org/licenses/by-sa/4.0/">
        <cc:permits
           rdf:resource="http://creativecommons.org/ns#Reproduction" />
        <cc:permits
           rdf:resource="http://creativecommons.org/ns#Distribution" />
        <cc:requires
           rdf:resource="http://creativecommons.org/ns#Notice" />
        <cc:requires
           rdf:resource="http://creativecommons.org/ns#Attribution" />
        <cc:permits
           rdf:resource="http://creativecommons.org/ns#DerivativeWorks" />
        <cc:requires
           rdf:resource="http://creativecommons.org/ns#ShareAlike" />
      </cc:License>
    </rdf:RDF>
  </metadata>
  <g
     inkscape:label="Capa 1"
     inkscape:groupmode="layer"
     id="layer1"
     transform="translate(36.076172,-93.731774)">
    <g
       id="g899"
       transform="matrix(1.4843054,0,0,1.4843054,17.471885,-90.243502)">
      <g
         id="g6614">
        <g
           id="g876">
          <path
             inkscape:connector-curvature="0"
             style="color:#000000;font-style:normal;font-variant:normal;font-weight:normal;font-stretch:normal;font-size:medium;line-height:normal;font-family:sans-serif;font-variant-ligatures:normal;font-variant-position:normal;font-variant-caps:normal;font-variant-numeric:normal;font-variant-alternates:normal;font-feature-settings:normal;text-indent:0;text-align:start;text-decoration:none;text-decoration-line:none;text-decoration-style:solid;text-decoration-color:#000000;letter-spacing:normal;word-spacing:normal;text-transform:none;writing-mode:lr-tb;direction:ltr;text-orientation:mixed;dominant-baseline:auto;baseline-shift:baseline;text-anchor:start;white-space:normal;shape-padding:0;clip-rule:nonzero;display:inline;overflow:visible;visibility:visible;opacity:1;isolation:auto;mix-blend-mode:normal;color-interpolation:sRGB;color-interpolation-filters:linearRGB;solid-color:#000000;solid-opacity:1;vector-effect:none;fill:#4fccfc;fill-opacity:1;fill-rule:nonzero;stroke:none;stroke-width:2.11666656;stroke-linecap:round;stroke-linejoin:round;stroke-miterlimit:4;stroke-dasharray:none;stroke-dashoffset:0;stroke-opacity:1;paint-order:markers fill stroke;color-rendering:auto;image-rendering:auto;shape-rendering:auto;text-rendering:auto;enable-background:accumulate"
             d="m -29.632812,123.94727 c -3.551967,0 -6.44336,2.89347 -6.44336,6.44531 v 49.49804 c 0,3.55185 2.891393,6.44532 6.44336,6.44532 H 8.2167969 c 3.5519661,0 6.4433591,-2.89335 6.4433591,-6.44532 v -40.70117 c 0,0 0.101353,-1.19181 -0.416015,-2.35156 -0.484969,-1.08711 -1.275391,-1.84375 -1.275391,-1.84375 a 1.0584391,1.0584391 0 0 0 -0.0059,-0.008 L 3.5722246,125.7752 a 1.0584391,1.0584391 0 0 0 -0.015625,-0.0156 c 0,0 -0.8017392,-0.76344 -1.9902344,-1.27344 -1.39939552,-0.6005 -2.8417968,-0.53711 -2.8417968,-0.53711 l 0.021484,-0.002 z"
             id="path890" />
          <path
             inkscape:connector-curvature="0"
             style="color:#000000;font-style:normal;font-variant:normal;font-weight:normal;font-stretch:normal;font-size:medium;line-height:normal;font-family:sans-serif;font-variant-ligatures:normal;font-variant-position:normal;font-variant-caps:normal;font-variant-numeric:normal;font-variant-alternates:normal;font-feature-settings:normal;text-indent:0;text-align:start;text-decoration:none;text-decoration-line:none;text-decoration-style:solid;text-decoration-color:#000000;letter-spacing:normal;word-spacing:normal;text-transform:none;writing-mode:lr-tb;direction:ltr;text-orientation:mixed;dominant-baseline:auto;baseline-shift:baseline;text-anchor:start;white-space:normal;shape-padding:0;clip-rule:nonzero;display:inline;overflow:visible;visibility:visible;opacity:1;isolation:auto;mix-blend-mode:normal;color-interpolation:sRGB;color-interpolation-filters:linearRGB;solid-color:#000000;solid-opacity:1;vector-effect:none;fill:#f5f5f5;fill-opacity:1;fill-rule:nonzero;stroke:none;stroke-width:2.11666656;stroke-linecap:round;stroke-linejoin:round;stroke-miterlimit:4;stroke-dasharray:none;stroke-dashoffset:0;stroke-opacity:1;paint-order:markers fill stroke;color-rendering:auto;image-rendering:auto;shape-rendering:auto;text-rendering:auto;enable-background:accumulate"
             d="m -29.632812,126.06445 h 28.3789058 a 1.0584391,1.0584391 0 0 0 0.021484,0 c 0,0 1.13480448,0.011 1.96484378,0.36719 0.79889772,0.34282 1.36536982,0.86176 1.36914062,0.86524 1.25e-5,1e-5 0.00391,0.004 0.00391,0.004 l 9.3671868,9.18945 c 0,0 0.564354,0.59582 0.837891,1.20899 0.220779,0.49491 0.234375,1.40039 0.234375,1.40039 a 1.0584391,1.0584391 0 0 0 -0.002,0.0449 v 40.74609 c 0,2.41592 -1.910258,4.32813 -4.3261717,4.32813 H -29.632812 c -2.415914,0 -4.326172,-1.91209 -4.326172,-4.32813 v -49.49804 c 0,-2.41603 1.910258,-4.32813 4.326172,-4.32813 z"
             id="rect2684" />
          <g
             id="g858">
            <text
               xml:space="preserve"
               style="font-style:normal;font-weight:normal;font-size:14.8856px;line-height:1.25;font-family:sans-serif;fill:#000000;fill-opacity:1;stroke:none;stroke-width:0.372139"
               x="-23.859125"
               y="177.38939"
               id="text9339"><tspan
                 sodipodi:role="line"
                 id="tspan9337"
                 style="font-style:normal;font-variant:normal;font-weight:normal;font-stretch:normal;font-family:Carlito;-inkscape-font-specification:Carlito;stroke-width:0.372139"
                 x="-23.859125"
                 y="177.38939">IMG</tspan></text>
          </g>
          <g
             id="g5114"
             transform="matrix(0.4170165,0,0,0.4170165,-24.052333,135.44355)"
             style="fill:#ff0000">
            <g
               id="XMLID_33_">
              <g
                 id="g5105">
                <g
                   id="g5095">
                  <path
                     fill="#4fccfc"
                     d="M 63,10 V 54 H 62 L 45.9,39 38.4,47 23.4,30 2,54 H 1 V 10 Z M 52,23 c 0,-3.3 -2.7,-6 -6,-6 -3.3,0 -6,2.7 -6,6 0,3.3 2.7,6 6,6 3.3,0 6,-2.7 6,-6 z"
                     id="path5093" />
                </g>
                <g
                   id="g5099">
                  <polygon
                     fill="#3eb778"
                     points="2,54 23.4,30 38.4,47 45.9,39 62,54 "
                     id="polygon5097" />
                </g>
                <g
                   id="g5103">
                  <path
                     fill="#ffd833"
                     d="m 46,17 c 3.3,0 6,2.7 6,6 0,3.3 -2.7,6 -6,6 -3.3,0 -6,-2.7 -6,-6 0,-3.3 2.7,-6 6,-6 z"
                     id="path5101" />
                </g>
              </g>
              <g
                 id="g5111">
                <path
                   fill="#2c2c3d"
                   d="M 63,9 H 1 C 0.4,9 0,9.4 0,10 v 44 c 0,0.6 0.4,1 1,1 h 62 c 0.6,0 1,-0.4 1,-1 V 10 C 64,9.4 63.6,9 63,9 Z m -1,2 V 52.6 L 46.6,38.3 c -0.4,-0.4 -1,-0.4 -1.4,0 L 38.5,45.5 24.2,29.3 C 24,29.1 23.7,29 23.4,29 c -0.3,0 -0.6,0.1 -0.7,0.3 L 2,52.5 V 11 Z M 59.5,53 H 4.2 L 23.4,31.5 37.7,47.7 c 0.2,0.2 0.5,0.3 0.7,0.3 0.3,0 0.6,-0.1 0.7,-0.3 l 6.8,-7.3 z"
                   id="path5107" />
                <path
                   fill="#2c2c3d"
                   d="m 46,30 c 3.9,0 7,-3.1 7,-7 0,-3.9 -3.1,-7 -7,-7 -3.9,0 -7,3.1 -7,7 0,3.9 3.1,7 7,7 z m 0,-12 c 2.8,0 5,2.2 5,5 0,2.8 -2.2,5 -5,5 -2.8,0 -5,-2.2 -5,-5 0,-2.8 2.2,-5 5,-5 z"
                   id="path5109" />
              </g>
            </g>
          </g>
        </g>
        <g
           id="g5250"
           transform="matrix(0.09231849,0,0,0.09231849,-103.82535,132.72499)"
           style="fill:#ff0000" />
        <g
           id="g5252"
           transform="matrix(0.09231849,0,0,0.09231849,-103.82535,132.72499)"
           style="fill:#ff0000" />
        <g
           id="g5254"
           transform="matrix(0.09231849,0,0,0.09231849,-103.82535,132.72499)"
           style="fill:#ff0000" />
        <g
           id="g5256"
           transform="matrix(0.09231849,0,0,0.09231849,-103.82535,132.72499)"
           style="fill:#ff0000" />
        <g
           id="g5258"
           transform="matrix(0.09231849,0,0,0.09231849,-103.82535,132.72499)"
           style="fill:#ff0000" />
        <g
           id="g5260"
           transform="matrix(0.09231849,0,0,0.09231849,-103.82535,132.72499)"
           style="fill:#ff0000" />
        <g
           id="g5262"
           transform="matrix(0.09231849,0,0,0.09231849,-103.82535,132.72499)"
           style="fill:#ff0000" />
        <g
           id="g5264"
           transform="matrix(0.09231849,0,0,0.09231849,-103.82535,132.72499)"
           style="fill:#ff0000" />
        <g
           id="g5266"
           transform="matrix(0.09231849,0,0,0.09231849,-103.82535,132.72499)"
           style="fill:#ff0000" />
        <g
           id="g5268"
           transform="matrix(0.09231849,0,0,0.09231849,-103.82535,132.72499)"
           style="fill:#ff0000" />
        <g
           id="g5270"
           transform="matrix(0.09231849,0,0,0.09231849,-103.82535,132.72499)"
           style="fill:#ff0000" />
        <g
           id="g5272"
           transform="matrix(0.09231849,0,0,0.09231849,-103.82535,132.72499)"
           style="fill:#ff0000" />
        <g
           id="g5274"
           transform="matrix(0.09231849,0,0,0.09231849,-103.82535,132.72499)"
           style="fill:#ff0000" />
        <g
           id="g5276"
           transform="matrix(0.09231849,0,0,0.09231849,-103.82535,132.72499)"
           style="fill:#ff0000" />
        <g
           id="g5278"
           transform="matrix(0.09231849,0,0,0.09231849,-103.82535,132.72499)"
           style="fill:#ff0000" />
      </g>
    </g>
  </g>
</svg>
