<?xml version="1.0" encoding="iso-8859-1"?>
<!-- Generator: Adobe Illustrator 19.0.0, SVG Export Plug-In . SVG Version: 6.00 Build 0)  -->
<svg version="1.1" id="Layer_1" xmlns="http://www.w3.org/2000/svg" xmlns:xlink="http://www.w3.org/1999/xlink" x="0px" y="0px"
	 viewBox="0 0 512 512" style="enable-background:new 0 0 512 512;" xml:space="preserve">
<path style="fill:#ECEDEF;" d="M106.324,8.017c-9.446,0-17.102,7.656-17.102,17.102v461.762c0,9.446,7.656,17.102,17.102,17.102
	h376.251c9.446,0,17.102-7.656,17.102-17.102V84.977l-76.96-76.96H106.324z"/>
<path style="fill:#D9DCDF;" d="M439.818,84.977h59.858l-76.96-76.96v59.858C422.715,77.319,430.373,84.977,439.818,84.977z"/>
<path style="fill:#C6CACF;" d="M397.063,196.142H89.222V42.221h307.841c4.722,0,8.551,3.829,8.551,8.551v136.818
	C405.614,192.313,401.785,196.142,397.063,196.142z"/>
<g>
	<polygon style="fill:#FFC44F;" points="388.512,179.04 12.261,179.04 80.67,110.63 12.261,42.221 388.512,42.221 	"/>
	<path style="fill:#FFC44F;" d="M388.512,444.125h-34.205c-4.722,0-8.551-3.829-8.551-8.551v-76.96l25.653-25.653l25.653,25.653
		v76.96C397.063,440.296,393.234,444.125,388.512,444.125z"/>
</g>
<path d="M499.677,426.489c4.428,0,8.017-3.589,8.017-8.017V84.977c0-2.1-0.862-4.183-2.347-5.668l-76.96-76.96
	C426.9,0.863,424.817,0,422.716,0H106.324C92.473,0,81.205,11.268,81.205,25.119v9.086H12.261c-6.987,0-10.615,8.738-5.669,13.685
	l62.741,62.741L6.592,173.371c-4.946,4.947-1.319,13.685,5.669,13.685h68.944v299.825c0,13.851,11.268,25.119,25.119,25.119h376.251
	c13.851,0,25.119-11.268,25.119-25.119v-34.205c0-4.427-3.588-8.017-8.017-8.017s-8.017,3.589-8.017,8.017v34.205
	c0,5.01-4.076,9.086-9.086,9.086H106.324c-5.01,0-9.086-4.076-9.086-9.086V187.056h51.841c4.428,0,8.017-3.589,8.017-8.017
	s-3.588-8.017-8.017-8.017H31.615l54.724-54.724c3.131-3.131,3.131-8.207,0-11.337L31.615,50.238h348.88v120.785H183.284
	c-4.428,0-8.017,3.589-8.017,8.017s3.588,8.017,8.017,8.017h205.228c4.428,0,8.017-3.589,8.017-8.017V42.221
	c0-4.427-3.588-8.017-8.017-8.017H97.238v-9.086c0-5.01,4.076-9.086,9.086-9.086H414.7v51.841c0,13.851,11.268,25.119,25.119,25.119
	h51.841v325.478C491.66,422.9,495.248,426.489,499.677,426.489z M439.819,76.96c-5.01,0-9.086-4.076-9.086-9.086V27.37l49.589,49.59
	H439.819z"/>
<path d="M150.371,139.684c1.319,2.817,4.149,4.617,7.26,4.617h42.756c4.428,0,8.017-3.589,8.017-8.017
	c0-4.427-3.588-8.017-8.017-8.017h-25.64l31.799-38.158c4.269-5.122,0.494-13.148-6.159-13.148h-42.756
	c-4.428,0-8.017,3.589-8.017,8.017c0,4.427,3.588,8.017,8.017,8.017h25.64l-31.799,38.158
	C149.48,133.541,149.051,136.868,150.371,139.684z"/>
<path d="M234.057,136.284V84.977c0-4.427-3.588-8.017-8.017-8.017c-4.428,0-8.017,3.589-8.017,8.017v51.307
	c0,4.427,3.588,8.017,8.017,8.017C230.468,144.301,234.057,140.711,234.057,136.284z"/>
<path d="M259.71,136.284v-17.655c0.176,0.012,0.355,0.018,0.534,0.018h25.653c4.428,0,8.017-3.589,8.017-8.017V84.977
	c0-4.427-3.588-8.017-8.017-8.017h-34.205c-4.428,0-8.017,3.589-8.017,8.017v51.307c0,4.427,3.588,8.017,8.017,8.017
	C256.122,144.301,259.71,140.711,259.71,136.284z M259.71,92.994h18.171v9.62h-17.637c-0.18,0-0.358,0.005-0.534,0.018
	L259.71,92.994L259.71,92.994z"/>
<path d="M371.409,393.353c-4.428,0-8.017,3.589-8.017,8.017v17.102c0,4.427,3.588,8.017,8.017,8.017s8.017-3.589,8.017-8.017V401.37
	C379.426,396.942,375.837,393.353,371.409,393.353z"/>
<path d="M363.393,367.165v8.551c0,4.427,3.588,8.017,8.017,8.017s8.017-3.589,8.017-8.017v-8.551c0-4.427-3.588-8.017-8.017-8.017
	S363.393,362.738,363.393,367.165z"/>
<path d="M428.875,233.766c-2.834-3.402-7.89-3.861-11.291-1.026l-49.078,40.897h-14.734V256c0-4.427-3.588-8.017-8.017-8.017
	c-4.428,0-8.017,3.589-8.017,8.017v17.637h-35.273V256c0-4.427-3.588-8.017-8.017-8.017c-4.428,0-8.017,3.589-8.017,8.017v17.637
	h-35.273V256c0-4.427-3.588-8.017-8.017-8.017c-4.428,0-8.017,3.589-8.017,8.017v17.637h-35.273V256
	c0-4.427-3.588-8.017-8.017-8.017s-8.017,3.589-8.017,8.017v17.637h-17.637c-4.428,0-8.017,3.589-8.017,8.017
	c0,4.427,3.588,8.017,8.017,8.017h43.29v17.637c0,4.427,3.588,8.017,8.017,8.017c4.428,0,8.017-3.589,8.017-8.017V289.67h35.273
	v17.637c0,4.427,3.588,8.017,8.017,8.017s8.017-3.589,8.017-8.017V289.67h35.273v17.637c0,4.427,3.588,8.017,8.017,8.017
	c4.428,0,8.017-3.589,8.017-8.017V289.67h35.273v39.969l-23.306,23.306c-1.503,1.503-2.347,3.542-2.347,5.668v76.96
	c0,9.136,7.432,16.568,16.568,16.568h34.205c9.136,0,16.568-7.432,16.568-16.568v-76.96c0-2.126-0.844-4.165-2.347-5.668
	l-23.306-23.306v-30.87l38.157,31.798c3.63,3.024,9.243,2.183,11.837-1.762c2.209-3.361,1.516-7.982-1.571-10.556l-43.916-36.597
	l43.917-36.597C431.249,242.222,431.709,237.167,428.875,233.766z M389.046,435.574c0,0.295-0.241,0.534-0.534,0.534h-34.205
	c-0.294,0-0.534-0.239-0.534-0.534v-73.64l17.637-17.637l17.637,17.637V435.574z"/>
<g>
</g>
<g>
</g>
<g>
</g>
<g>
</g>
<g>
</g>
<g>
</g>
<g>
</g>
<g>
</g>
<g>
</g>
<g>
</g>
<g>
</g>
<g>
</g>
<g>
</g>
<g>
</g>
<g>
</g>
</svg>
