<?xml version="1.0" encoding="UTF-8" standalone="no"?>
<!-- Created with Inkscape (http://www.inkscape.org/) -->

<svg
   width="25"
   height="36"
   viewBox="0 0 6.6145831 9.5250003"
   version="1.1"
   id="svg5"
   xmlns="http://www.w3.org/2000/svg"
   xmlns:svg="http://www.w3.org/2000/svg">
  <defs
     id="defs2" />
  <g
     id="layer1">
    <g
       id="g27"
       transform="translate(-125.6564,-184.90818)">
      <path
         fill="#f7dece"
         d="m 130.32421,185.80856 c -0.43657,-0.39794 -0.90752,-0.6358 -1.36049,-0.6358 -1.48828,0 -3.175,2.54291 -3.175,5.02709 0,0.25797 0.0209,0.50244 0.0534,0.73845 0.28019,2.03544 1.69889,3.2303 3.12155,3.2303 1.5875,0 3.175,-1.48458 3.175,-3.96875 0,-1.728 -0.81651,-3.48218 -1.81451,-4.39129 z"
         id="path6"
         style="stroke-width:0.264583" />
      <path
         fill="#e0aa94"
         d="m 130.32416,185.80856 c 0.76941,0.93107 1.35149,2.38601 1.35149,3.82402 0,2.38363 -1.50072,3.80815 -3.00143,3.80815 -1.20148,0 -2.4011,-0.9152 -2.83237,-2.5027 0.28046,2.03571 1.69916,3.23057 3.12182,3.23057 1.5875,0 3.175,-1.48458 3.175,-3.96875 0,-1.728 -0.8165,-3.48218 -1.81451,-4.39129 z"
         id="path8"
         style="stroke-width:0.264583" />
    </g>
  </g>
</svg>
