<?xml version="1.0" encoding="UTF-8" standalone="no"?>
<svg
   xmlns:dc="http://purl.org/dc/elements/1.1/"
   xmlns:cc="http://creativecommons.org/ns#"
   xmlns:rdf="http://www.w3.org/1999/02/22-rdf-syntax-ns#"
   xmlns:svg="http://www.w3.org/2000/svg"
   xmlns="http://www.w3.org/2000/svg"
   id="svg4"
   version="1.1"
   viewBox="0 0 32 32"
   height="800px"
   width="800px"
   fill="#000000">
  <metadata
     id="metadata10">
    <rdf:RDF>
      <cc:Work
         rdf:about="">
        <dc:format>image/svg+xml</dc:format>
        <dc:type
           rdf:resource="http://purl.org/dc/dcmitype/StillImage" />
        <dc:title></dc:title>
      </cc:Work>
    </rdf:RDF>
  </metadata>
  <defs
     id="defs8" />
  <path
     style="fill:#334455;fill-opacity:1"
     id="path2"
     d="m 21.099,0 c -0.187,0 -0.375,0.052 -0.536,0.151 -0.5,0.297 -1.333,1.136 -2.328,2.355 L 18.027,2.761 C 17.76,3.089 17.484,3.444 17.203,3.818 16.251,5.094 15.355,6.417 14.516,7.777 l -0.027,0.047 -0.063,0.099 c -0.817,1.333 -1.577,2.709 -2.276,4.109 -0.552,1.109 -1.041,2.245 -1.468,3.407 -0.12,0.333 -0.229,0.656 -0.333,0.969 -0.084,0.265 -0.161,0.531 -0.235,0.796 -0.177,0.62 -0.333,1.245 -0.459,1.865 L 9.639,19.152 C 9.488,19.897 9.39,20.647 9.327,21.408 L 9.322,21.485 C 8.953,20.886 7.953,20.304 7.953,20.308 c 0.719,1.037 1.26,2.068 1.339,3.079 -0.38,0.079 -0.907,-0.036 -1.516,-0.26 0.636,0.583 1.109,0.744 1.292,0.787 -0.579,0.036 -1.183,0.437 -1.792,0.895 0.891,-0.364 1.609,-0.509 2.125,-0.391 -0.875,2.505 -1.699,5.037 -2.459,7.584 0.235,-0.068 0.417,-0.245 0.484,-0.473 0.152,-0.491 1.12,-3.715 2.641,-7.953 l 0.129,-0.365 0.037,-0.099 c 0.161,-0.443 0.328,-0.896 0.5,-1.36 l 0.115,-0.317 0.005,-0.005 c 0.156,-0.421 0.317,-0.853 0.484,-1.287 l 0.073,-0.181 0.067,-0.183 0.057,-0.136 -0.057,0.141 -0.067,0.177 -0.073,0.181 c -0.167,0.433 -0.328,0.865 -0.484,1.287 l 0.14,0.276 0.125,-0.015 0.016,-0.037 c 0.203,-0.557 0.4,-1.099 0.604,-1.624 l 0.005,-0.021 c -0.209,0.547 -0.412,1.099 -0.609,1.645 l -0.016,0.037 -0.089,0.244 c -0.156,0.432 -0.317,0.875 -0.473,1.323 l -0.005,0.021 -0.068,0.193 c -0.109,0.301 -0.203,0.577 -0.411,1.197 0.348,0.161 0.629,0.584 0.896,1.057 -0.027,-0.505 -0.251,-0.975 -0.62,-1.317 1.729,0.077 3.219,-0.36 3.989,-1.62 0.068,-0.115 0.131,-0.235 0.188,-0.36 -0.349,0.443 -0.787,0.631 -1.605,0.584 1.204,-0.537 1.808,-1.052 2.339,-1.912 0.136,-0.213 0.261,-0.437 0.376,-0.667 -1.052,1.079 -2.267,1.385 -3.553,1.152 l -0.056,-0.011 c 1.151,-0.141 2.681,-1 3.671,-2.063 0.453,-0.489 0.871,-1.068 1.251,-1.74 0.287,-0.505 0.552,-1.063 0.807,-1.677 0.224,-0.541 0.439,-1.124 0.641,-1.755 -0.339,0.172 -0.703,0.287 -1.079,0.344 -0.063,0.011 -0.124,0.02 -0.181,0.031 l 0.004,-0.005 c 0.057,-0.005 0.12,-0.015 0.177,-0.025 0.057,-0.01 0.12,-0.021 0.177,-0.037 l -0.177,0.037 -0.177,0.025 c 1.073,-0.411 1.745,-1.208 2.235,-2.181 -0.391,0.271 -0.828,0.457 -1.287,0.567 -0.077,0.016 -0.151,0.032 -0.228,0.043 l -0.057,0.004 h 0.009 l 0.048,-0.004 c 0.067,-0.016 0.135,-0.027 0.208,-0.043 l 0.015,-0.005 -0.02,0.005 -0.256,0.047 c 0.371,-0.156 0.683,-0.333 0.953,-0.536 0.199,-0.156 0.385,-0.328 0.547,-0.521 0.109,-0.124 0.209,-0.265 0.303,-0.411 l 0.084,-0.141 0.104,-0.203 c 0.181,-0.369 0.348,-0.749 0.489,-1.135 l 0.041,-0.115 c 0.036,-0.115 0.073,-0.219 0.093,-0.308 0.037,-0.131 0.057,-0.235 0.073,-0.312 -0.041,0.031 -0.083,0.063 -0.125,0.083 -0.328,0.199 -0.88,0.371 -1.328,0.453 l -0.135,0.016 -3.021,0.333 -0.016,0.031 -0.104,0.213 -0.312,0.652 c 0.104,-0.224 0.208,-0.443 0.312,-0.652 l 0.104,-0.213 c 0.005,-0.011 0.011,-0.02 0.016,-0.031 l -0.115,0.011 -0.088,-0.177 c -0.172,0.339 -0.339,0.677 -0.505,1.016 l -0.271,0.567 c -0.505,1.063 -0.989,2.131 -1.453,3.209 -0.5,1.151 -0.98,2.307 -1.443,3.468 l 0.115,-0.287 c 0.427,-1.068 0.869,-2.129 1.328,-3.181 0.464,-1.079 0.948,-2.152 1.453,-3.209 l 0.271,-0.567 c 0.161,-0.324 0.317,-0.647 0.479,-0.964 l 0.027,-0.052 c 0.255,-0.505 0.511,-1 0.771,-1.489 0.281,-0.516 0.563,-1.027 0.844,-1.521 0.291,-0.5 0.588,-1 0.896,-1.489 l 0.057,-0.089 c 0.296,-0.468 0.599,-0.927 0.9,-1.359 0.615,-0.891 1.292,-1.74 2.032,-2.532 l -0.079,0.084 c -0.213,0.235 -0.859,0.984 -1.833,2.484 0.937,-0.047 2.38,-0.239 3.552,-0.443 0.355,-1.959 -0.339,-2.853 -0.339,-2.853 0,0 -0.593,-0.959 -1.38,-0.969 z m -2.192,10.011 c 0.88,-0.407 1.271,-0.771 1.656,-1.303 0.099,-0.145 0.203,-0.296 0.301,-0.457 0.313,-0.485 0.615,-1.016 0.885,-1.548 0.267,-0.515 0.496,-1.02 0.672,-1.479 0.105,-0.26 0.193,-0.531 0.272,-0.803 0.052,-0.208 0.099,-0.405 0.129,-0.599 -1.177,0.204 -2.62,0.396 -3.557,0.437 -0.323,0.495 -0.629,0.995 -0.927,1.5 -0.271,0.459 -0.563,0.964 -0.869,1.516 -0.552,1.005 -1.084,2.031 -1.589,3.063 L 18.901,10.01 Z M 19.016,10 18.88,10.021 19.016,9.994 Z m -0.12,0.016 h -0.011 z m -3.656,1.656 -0.141,0.301 -0.177,0.381 c -0.421,0.921 -0.833,1.848 -1.228,2.781 -0.459,1.083 -0.901,2.167 -1.329,3.26 -0.197,0.505 -0.4,1.02 -0.599,1.552 l -0.011,0.021 c 0.959,-2.579 2.011,-5.12 3.167,-7.615 l 0.177,-0.381 z" />
</svg>
