<?xml version="1.0" encoding="UTF-8" standalone="no"?>
<svg
   xmlns:dc="http://purl.org/dc/elements/1.1/"
   xmlns:cc="http://creativecommons.org/ns#"
   xmlns:rdf="http://www.w3.org/1999/02/22-rdf-syntax-ns#"
   xmlns:svg="http://www.w3.org/2000/svg"
   xmlns="http://www.w3.org/2000/svg"
   id="svg4"
   version="1.1"
   viewBox="0 0 32 32"
   height="800px"
   width="800px"
   fill="#000000">
  <metadata
     id="metadata10">
    <rdf:RDF>
      <cc:Work
         rdf:about="">
        <dc:format>image/svg+xml</dc:format>
        <dc:type
           rdf:resource="http://purl.org/dc/dcmitype/StillImage" />
        <dc:title></dc:title>
      </cc:Work>
    </rdf:RDF>
  </metadata>
  <defs
     id="defs8" />
  <path
     style="fill:#334455;fill-opacity:1"
     id="path2"
     d="M30.865 3.448l-6.583-3.167c-0.766-0.37-1.677-0.214-2.276 0.385l-12.609 11.505-5.495-4.167c-0.51-0.391-1.229-0.359-1.703 0.073l-1.76 1.604c-0.583 0.526-0.583 1.443-0.005 1.969l4.766 4.349-4.766 4.349c-0.578 0.526-0.578 1.443 0.005 1.969l1.76 1.604c0.479 0.432 1.193 0.464 1.703 0.073l5.495-4.172 12.615 11.51c0.594 0.599 1.505 0.755 2.271 0.385l6.589-3.172c0.693-0.333 1.13-1.031 1.13-1.802v-21.495c0-0.766-0.443-1.469-1.135-1.802zM24.005 23.266l-9.573-7.266 9.573-7.266z" />
</svg>
