<?xml version="1.0" encoding="UTF-8" standalone="no"?>
<!-- Created with Inkscape (http://www.inkscape.org/) -->

<svg
   width="556"
   height="225"
   viewBox="0 0 147.10833 59.531252"
   version="1.1"
   id="svg5"
   xmlns="http://www.w3.org/2000/svg"
   xmlns:svg="http://www.w3.org/2000/svg">
  <defs
     id="defs2" />
  <g
     id="layer1">
    <g
       id="g6906">
      <g
         id="g7056"
         transform="translate(-33.440156,-39.733822)">
        <g
           id="g6894"
           transform="translate(1.6952289)">
          <path
             id="rect892"
             style="fill:#f2f2f2;stroke:#000000;stroke-width:1.19062;stroke-opacity:1"
             d="M 105.09936,52.721763 59.512479,98.618702 h 91.176341 l 0.30799,-0.31006 z" />
          <g
             aria-label="Projet"
             id="text2435"
             style="font-size:10.5833px;line-height:1.25;stroke-width:0.264583">
            <path
               d="m 92.847853,76.441258 q 1.481662,0 2.158993,0.582082 0.677332,0.582081 0.677332,1.640411 0,0.624415 -0.285749,1.174746 -0.275166,0.539749 -0.941914,0.878414 -0.656165,0.338666 -1.788578,0.338666 h -0.86783 v 2.942157 H 90.84761 v -7.556476 z m -0.08467,0.814914 h -0.96308 v 2.984491 H 92.5621 q 1.079497,0 1.608662,-0.349249 0.529165,-0.349249 0.529165,-1.18533 0,-0.730247 -0.476249,-1.09008 -0.465665,-0.359832 -1.460495,-0.359832 z"
               id="path6941" />
            <path
               d="m 99.769327,78.219252 q 0.158749,0 0.338663,0.02117 0.17992,0.01058 0.32808,0.04233 L 100.31966,79.14 q -0.13758,-0.03175 -0.30692,-0.05292 -0.16933,-0.02117 -0.306913,-0.02117 -0.433915,0 -0.814914,0.243416 -0.380999,0.232833 -0.613832,0.666748 -0.222249,0.423332 -0.222249,0.99483 v 3.026824 h -0.93133 v -5.672649 h 0.761997 l 0.105833,1.037164 h 0.04233 q 0.264582,-0.465665 0.698497,-0.804331 0.444499,-0.338666 1.037164,-0.338666 z"
               id="path6943" />
            <path
               d="m 106.21455,81.150826 q 0,1.407579 -0.71966,2.18016 -0.70908,0.772581 -1.92616,0.772581 -0.75142,0 -1.34408,-0.338666 -0.58208,-0.349248 -0.92075,-1.005413 -0.33866,-0.666748 -0.33866,-1.608662 0,-1.407578 0.69849,-2.169576 0.70908,-0.761998 1.93675,-0.761998 0.76199,0 1.35466,0.349249 0.59266,0.338666 0.92075,0.994831 0.33866,0.645581 0.33866,1.587494 z m -4.28623,0 q 0,1.005414 0.39158,1.598079 0.40216,0.582081 1.26999,0.582081 0.85725,0 1.25942,-0.582081 0.40216,-0.592665 0.40216,-1.598079 0,-1.005413 -0.40216,-1.576911 -0.40217,-0.571498 -1.27,-0.571498 -0.86783,0 -1.25941,0.571498 -0.39158,0.571498 -0.39158,1.576911 z"
               id="path6945" />
            <path
               d="m 107.61154,76.790507 q 0,-0.306916 0.15875,-0.444499 0.15875,-0.148166 0.39158,-0.148166 0.21167,0 0.37042,0.148166 0.16933,0.137583 0.16933,0.444499 0,0.306916 -0.16933,0.455082 -0.15875,0.137583 -0.37042,0.137583 -0.23283,0 -0.39158,-0.137583 -0.15875,-0.148166 -0.15875,-0.455082 z m -0.59266,9.747219 q -0.27517,0 -0.47625,-0.04233 -0.20108,-0.03175 -0.33867,-0.08467 v -0.751414 q 0.15875,0.05292 0.32809,0.07408 0.16933,0.03175 0.37041,0.03175 0.33867,0 0.56092,-0.190499 0.22225,-0.179916 0.22225,-0.698498 v -6.551063 h 0.93133 v 6.519313 q 0,0.793748 -0.381,1.238246 -0.381,0.455082 -1.21708,0.455082 z"
               id="path6947" />
            <path
               d="m 112.60685,78.219252 q 0.71967,0 1.24883,0.317499 0.52917,0.317499 0.80433,0.899581 0.28575,0.571498 0.28575,1.344079 v 0.560915 h -3.88407 q 0.0212,0.96308 0.48683,1.471079 0.47625,0.497415 1.32292,0.497415 0.53975,0 0.95249,-0.09525 0.42334,-0.105833 0.86783,-0.296332 v 0.814914 q -0.43391,0.190499 -0.85724,0.275165 -0.42333,0.09525 -1.00542,0.09525 -0.81491,0 -1.42874,-0.328082 -0.61383,-0.328083 -0.96308,-0.973664 -0.33867,-0.645581 -0.33867,-1.598078 0,-0.93133 0.30692,-1.598078 0.3175,-0.666748 0.87841,-1.02658 0.5715,-0.359833 1.32291,-0.359833 z m -0.0106,0.761998 q -0.66675,0 -1.05833,0.433915 -0.381,0.423332 -0.45508,1.18533 h 2.88924 q -0.0106,-0.719664 -0.33867,-1.164163 -0.32808,-0.455082 -1.03716,-0.455082 z"
               id="path6949" />
            <path
               d="m 118.2795,83.341569 q 0.21166,0 0.43391,-0.03175 0.22225,-0.03175 0.35983,-0.08467 v 0.709081 q -0.14816,0.07408 -0.42333,0.116417 -0.27517,0.05292 -0.52916,0.05292 -0.4445,0 -0.8255,-0.148166 -0.37042,-0.15875 -0.60325,-0.539748 -0.23283,-0.380999 -0.23283,-1.068914 V 79.04475 h -0.80433 v -0.444499 l 0.81491,-0.370415 0.37042,-1.206496 h 0.55033 v 1.301745 h 1.64041 v 0.719665 h -1.64041 v 3.280823 q 0,0.518581 0.24341,0.772581 0.254,0.243415 0.64559,0.243415 z"
               id="path6951" />
          </g>
        </g>
        <g
           aria-label="Qualité"
           id="text3363"
           style="font-size:10.5833px;line-height:1.25;stroke-width:0.264583">
          <path
             d="m 96.225811,44.102868 q 0,1.386412 -0.560915,2.370659 -0.550332,0.973664 -1.640412,1.333496 l 1.809745,1.883827 h -1.365246 l -1.460495,-1.703911 q -0.0635,0 -0.137583,0 -0.0635,0.01058 -0.127,0.01058 -1.174746,0 -1.95791,-0.486831 -0.772581,-0.486832 -1.15358,-1.365246 -0.380999,-0.878414 -0.380999,-2.05316 0,-1.15358 0.380999,-2.02141 0.380999,-0.878414 1.15358,-1.365246 0.783164,-0.486832 1.968493,-0.486832 1.132413,0 1.904994,0.486832 0.772581,0.476248 1.164163,1.354662 0.402166,0.867831 0.402166,2.042577 z m -5.968981,0 q 0,1.428745 0.603248,2.254243 0.603248,0.814914 1.883827,0.814914 1.280579,0 1.873244,-0.814914 0.603248,-0.825498 0.603248,-2.254243 0,-1.428745 -0.592665,-2.233076 -0.592664,-0.814914 -1.873244,-0.814914 -1.291162,0 -1.89441,0.814914 -0.603248,0.804331 -0.603248,2.233076 z"
             id="path6908" />
          <path
             d="m 102.51229,42.219041 v 5.672648 h -0.762 l -0.13758,-0.751414 h -0.0423 q -0.27517,0.444499 -0.762,0.656165 -0.48683,0.201082 -1.037163,0.201082 -1.02658,0 -1.545161,-0.486831 -0.518582,-0.497416 -0.518582,-1.576912 v -3.714738 h 0.941914 v 3.651238 q 0,1.354662 1.259412,1.354662 0.94191,0 1.30175,-0.529165 0.37041,-0.529165 0.37041,-1.523995 v -2.95274 z"
             id="path6910" />
          <path
             d="m 106.45986,42.123791 q 1.03717,0 1.53458,0.455082 0.49742,0.455082 0.49742,1.449912 v 3.862904 h -0.67733 l -0.17992,-0.80433 h -0.0423 q -0.37042,0.465665 -0.78317,0.687914 -0.41275,0.222249 -1.12183,0.222249 -0.77258,0 -1.28058,-0.402165 -0.508,-0.412749 -0.508,-1.280579 0,-0.846664 0.66675,-1.301746 0.66675,-0.465665 2.05316,-0.507999 l 0.96308,-0.03175 v -0.338666 q 0,-0.709081 -0.30691,-0.984247 -0.30692,-0.275166 -0.86783,-0.275166 -0.4445,0 -0.84667,0.137583 -0.40216,0.127 -0.75141,0.296333 l -0.28575,-0.698498 q 0.37041,-0.201083 0.87841,-0.338666 0.508,-0.148166 1.05833,-0.148166 z m 1.11125,2.995074 -0.83608,0.03175 q -1.05833,0.04233 -1.47108,0.338665 -0.40217,0.296333 -0.40217,0.836081 0,0.476248 0.28575,0.698498 0.29634,0.222249 0.75142,0.222249 0.70908,0 1.18533,-0.391582 0.48683,-0.402165 0.48683,-1.227663 z"
             id="path6912" />
          <path
             d="m 111.18002,47.891689 h -0.93133 v -8.043307 h 0.93133 z"
             id="path6914" />
          <path
             d="m 113.45543,40.091797 q 0.21166,0 0.37041,0.148167 0.16933,0.137583 0.16933,0.444498 0,0.306916 -0.16933,0.455082 -0.15875,0.137583 -0.37041,0.137583 -0.23284,0 -0.39159,-0.137583 -0.15875,-0.148166 -0.15875,-0.455082 0,-0.306915 0.15875,-0.444498 0.15875,-0.148167 0.39159,-0.148167 z m 0.45508,2.127244 v 5.672648 h -0.93133 v -5.672648 z"
             id="path6916" />
          <path
             d="m 117.60407,47.235525 q 0.21167,0 0.43392,-0.03175 0.22225,-0.03175 0.35983,-0.08467 v 0.709082 q -0.14816,0.07408 -0.42333,0.116416 -0.27517,0.05292 -0.52917,0.05292 -0.44449,0 -0.82549,-0.148166 -0.37042,-0.158749 -0.60325,-0.539748 -0.23283,-0.380999 -0.23283,-1.068913 v -3.30199 h -0.80433 v -0.444499 l 0.81491,-0.370415 0.37042,-1.206496 h 0.55033 v 1.301746 h 1.64041 v 0.719664 h -1.64041 v 3.280823 q 0,0.518582 0.24341,0.772581 0.254,0.243416 0.64558,0.243415 z"
             id="path6918" />
          <path
             d="m 121.72098,42.113208 q 0.71966,0 1.24883,0.317499 0.52916,0.317499 0.80433,0.89958 0.28575,0.571498 0.28575,1.344079 v 0.560915 h -3.88407 q 0.0212,0.96308 0.48683,1.471079 0.47625,0.497415 1.32291,0.497415 0.53975,0 0.9525,-0.09525 0.42333,-0.105833 0.86783,-0.296332 v 0.814914 q -0.43392,0.190499 -0.85725,0.275166 -0.42333,0.09525 -1.00541,0.09525 -0.81492,0 -1.42875,-0.328082 -0.61383,-0.328082 -0.96308,-0.973664 -0.33866,-0.645581 -0.33866,-1.598078 0,-0.93133 0.30691,-1.598078 0.3175,-0.666748 0.87842,-1.02658 0.57149,-0.359832 1.32291,-0.359833 z m -0.0106,0.761997 q -0.66675,0 -1.05833,0.433916 -0.381,0.423332 -0.45509,1.185329 h 2.88924 q -0.0106,-0.719664 -0.33866,-1.164163 -0.32808,-0.455082 -1.03716,-0.455082 z m 1.42874,-3.090323 v 0.105833 q -0.13758,0.190499 -0.40216,0.497415 -0.254,0.296332 -0.56092,0.603248 -0.29633,0.296332 -0.55033,0.486832 h -0.61383 v -0.127 q 0.14816,-0.190499 0.33866,-0.465665 0.1905,-0.285749 0.37042,-0.571498 0.17991,-0.296333 0.29633,-0.529165 z"
             id="path6920" />
        </g>
        <g
           aria-label="Coût"
           id="text4507"
           style="font-size:10.5833px;line-height:1.25;stroke-width:0.264583">
          <path
             d="m 36.788534,92.281949 q -1.21708,0 -1.915577,0.814914 -0.698498,0.814914 -0.698498,2.233076 0,1.407579 0.645581,2.233076 0.656165,0.814915 1.957911,0.814915 0.486831,0 0.93133,-0.08467 0.444499,-0.08467 0.878414,-0.211666 v 0.825497 q -0.423332,0.15875 -0.878414,0.232833 -0.444499,0.07408 -1.068913,0.07408 -1.15358,0 -1.926161,-0.476248 -0.772581,-0.476249 -1.164163,-1.354663 -0.380999,-0.878414 -0.380999,-2.063743 0,-1.142996 0.412749,-2.010827 0.423332,-0.878414 1.238246,-1.365246 0.814914,-0.497415 1.979077,-0.497415 1.195913,0 2.08491,0.444499 l -0.380999,0.804331 q -0.349248,-0.15875 -0.783164,-0.285749 -0.423332,-0.127 -0.93133,-0.127 z"
             id="path6972" />
          <path
             d="m 45.043507,96.26127 q 0,1.407578 -0.719664,2.180159 -0.709081,0.772581 -1.926161,0.772581 -0.751414,0 -1.344079,-0.338665 -0.582081,-0.349249 -0.920747,-1.005414 -0.338665,-0.666748 -0.338665,-1.608661 0,-1.407579 0.698497,-2.169577 0.709081,-0.761997 1.936744,-0.761997 0.761998,0 1.354663,0.349248 0.592664,0.338666 0.920747,0.994831 0.338665,0.645581 0.338665,1.587495 z m -4.286236,0 q 0,1.005413 0.391582,1.598078 0.402165,0.582081 1.269996,0.582081 0.857247,0 1.259413,-0.582081 0.402165,-0.592665 0.402165,-1.598078 0,-1.005414 -0.402165,-1.576912 -0.402166,-0.571498 -1.269996,-0.571498 -0.867831,0 -1.259413,0.571498 -0.391582,0.571498 -0.391582,1.576912 z"
             id="path6974" />
          <path
             d="m 51.255899,93.435529 v 5.672648 h -0.761997 l -0.137583,-0.751414 h -0.04233 q -0.275166,0.444498 -0.761998,0.656164 -0.486832,0.201083 -1.037163,0.201083 -1.02658,0 -1.545162,-0.486832 -0.518582,-0.497415 -0.518582,-1.576911 v -3.714738 h 0.941914 v 3.651238 q 0,1.354662 1.259413,1.354662 0.941913,0 1.301746,-0.529165 0.370415,-0.529165 0.370415,-1.523995 v -2.95274 z M 49.372072,91.00137 q 0.127,0.232832 0.359832,0.529165 0.243416,0.285749 0.497415,0.571498 0.264583,0.275166 0.465666,0.476248 v 0.116417 H 50.03882 q -0.275166,-0.169333 -0.571498,-0.412749 -0.296333,-0.253999 -0.582082,-0.539748 -0.285749,0.285749 -0.571498,0.539748 -0.285749,0.243416 -0.560915,0.412749 h -0.634998 v -0.116417 q 0.1905,-0.201082 0.444499,-0.476248 0.253999,-0.285749 0.486832,-0.571498 0.232832,-0.296333 0.370415,-0.529165 z"
             id="path6976" />
          <path
             d="m 54.949471,98.452013 q 0.211666,0 0.433915,-0.03175 0.222249,-0.03175 0.359832,-0.08467 v 0.709081 q -0.148166,0.07408 -0.423332,0.116417 -0.275166,0.05292 -0.529165,0.05292 -0.444499,0 -0.825497,-0.148166 -0.370416,-0.15875 -0.603248,-0.539748 -0.232833,-0.380999 -0.232833,-1.068914 v -3.301989 h -0.804331 v -0.444499 l 0.814914,-0.370415 0.370416,-1.206496 h 0.550331 v 1.301746 h 1.640412 v 0.719664 h -1.640412 v 3.280823 q 0,0.518582 0.243416,0.772581 0.253999,0.243416 0.645582,0.243415 z"
             id="path6978" />
        </g>
        <g
           aria-label="Délai"
           id="text5765"
           style="font-size:10.5833px;line-height:1.25;stroke-width:0.264583">
          <path
             d="m 163.62175,95.255856 q 0,1.915577 -1.04775,2.889241 -1.03716,0.96308 -2.89982,0.96308 h -2.10608 v -7.556476 h 2.32833 q 1.13241,0 1.96849,0.423332 0.84666,0.423332 1.30174,1.24883 0.45509,0.825497 0.45509,2.031993 z m -1.00542,0.03175 q 0,-1.513412 -0.75141,-2.21191 -0.74083,-0.709081 -2.10608,-0.709081 h -1.23824 v 5.926648 h 1.02658 q 3.06915,0 3.06915,-3.005657 z"
             id="path6999" />
          <path
             d="m 167.35765,93.329696 q 0.71966,0 1.24883,0.317499 0.52916,0.317499 0.80433,0.89958 0.28575,0.571498 0.28575,1.344079 v 0.560915 h -3.88408 q 0.0212,0.96308 0.48684,1.471079 0.47625,0.497415 1.32291,0.497415 0.53975,0 0.9525,-0.09525 0.42333,-0.105833 0.86783,-0.296332 v 0.814914 q -0.43392,0.190499 -0.85725,0.275165 -0.42333,0.09525 -1.00541,0.09525 -0.81492,0 -1.42875,-0.328082 -0.61383,-0.328082 -0.96308,-0.973664 -0.33867,-0.645581 -0.33867,-1.598078 0,-0.93133 0.30692,-1.598078 0.3175,-0.666748 0.87841,-1.02658 0.5715,-0.359832 1.32292,-0.359832 z m -0.0106,0.761997 q -0.66674,0 -1.05833,0.433915 -0.381,0.423332 -0.45508,1.18533 h 2.88924 q -0.0106,-0.719664 -0.33866,-1.164163 -0.32809,-0.455082 -1.03717,-0.455082 z m 1.42875,-3.090323 v 0.105833 q -0.13758,0.190499 -0.40217,0.497415 -0.254,0.296332 -0.56091,0.603248 -0.29633,0.296332 -0.55033,0.486832 h -0.61383 v -0.127 q 0.14816,-0.190499 0.33866,-0.465665 0.1905,-0.285749 0.37042,-0.571498 0.17991,-0.296333 0.29633,-0.529165 z"
             id="path7001" />
          <path
             d="m 172.06721,99.108177 h -0.93133 v -8.043308 h 0.93133 z"
             id="path7003" />
          <path
             d="m 176.01477,93.340279 q 1.03716,0 1.53458,0.455082 0.49741,0.455082 0.49741,1.449912 v 3.862904 h -0.67733 l -0.17991,-0.804331 h -0.0423 q -0.37041,0.465666 -0.78316,0.687915 -0.41275,0.222249 -1.12183,0.222249 -0.77258,0 -1.28058,-0.402165 -0.508,-0.412749 -0.508,-1.280579 0,-0.846664 0.66675,-1.301746 0.66675,-0.465666 2.05316,-0.507999 l 0.96308,-0.03175 v -0.338665 q 0,-0.709081 -0.30692,-0.984247 -0.30691,-0.275166 -0.86783,-0.275166 -0.4445,0 -0.84666,0.137583 -0.40217,0.127 -0.75141,0.296332 l -0.28575,-0.698497 q 0.37041,-0.201083 0.87841,-0.338666 0.508,-0.148166 1.05833,-0.148166 z m 1.11125,2.995074 -0.83608,0.03175 q -1.05833,0.04233 -1.47108,0.338665 -0.40217,0.296333 -0.40217,0.836081 0,0.476248 0.28575,0.698498 0.29633,0.222249 0.75142,0.222249 0.70908,0 1.18532,-0.391582 0.48684,-0.402166 0.48684,-1.227663 z"
             id="path7005" />
          <path
             d="m 180.27985,91.308285 q 0.21167,0 0.37041,0.148167 0.16934,0.137582 0.16934,0.444498 0,0.306916 -0.16934,0.455082 -0.15874,0.137583 -0.37041,0.137583 -0.23283,0 -0.39158,-0.137583 -0.15875,-0.148166 -0.15875,-0.455082 0,-0.306916 0.15875,-0.444498 0.15875,-0.148167 0.39158,-0.148167 z m 0.45508,2.127244 v 5.672648 h -0.93133 v -5.672648 z"
             id="path7007" />
        </g>
      </g>
    </g>
  </g>
</svg>
